<svg width="402" height="326" viewBox="0 0 402 326" fill="none" xmlns="http://www.w3.org/2000/svg">
<g clip-path="url(#clip0_226_197)">
<rect y="-243" width="402" height="569" fill="url(#paint0_radial_226_197)"/>
<g opacity="0.5" filter="url(#filter0_f_226_197)">
<path d="M284.689 82C294.824 82 303.618 87.7334 308.009 96.1328C309.561 95.7356 311.189 95.5245 312.865 95.5244C323.654 95.5244 332.401 104.271 332.401 115.06C332.401 125.68 323.926 134.321 313.37 134.589L312.865 134.596H263.651L263.273 134.591C255.356 134.39 249 127.909 249 119.943C249 113.675 252.937 108.328 258.472 106.235C259.524 92.6755 270.86 82.0001 284.689 82Z" fill="url(#paint1_linear_226_197)"/>
</g>
<g opacity="0.5" filter="url(#filter1_f_226_197)">
<path d="M306.562 197C313.82 197 320.118 201.106 323.263 207.122C324.375 206.838 325.54 206.687 326.741 206.687C334.468 206.687 340.733 212.951 340.733 220.678C340.733 228.284 334.663 234.474 327.103 234.665L326.741 234.67H291.494L290.954 234.656C285.409 234.375 281 229.79 281 224.176C281 219.687 283.819 215.858 287.783 214.359C288.536 204.647 296.656 197 306.562 197Z" fill="url(#paint2_linear_226_197)"/>
</g>
<g opacity="0.5" filter="url(#filter2_f_226_197)">
<path d="M62.8682 103C75.8302 103 86.5719 112.45 88.5098 124.8C88.6137 124.798 88.7178 124.796 88.8223 124.796C97.0585 124.796 103.735 131.473 103.735 139.709C103.735 147.945 97.0586 154.622 88.8223 154.622H36.9131C28.6768 154.622 22 147.945 22 139.709C22.0001 131.473 28.6769 124.796 36.9131 124.796C37.0172 124.796 37.121 124.798 37.2246 124.8C39.1624 112.45 49.9059 103 62.8682 103Z" fill="url(#paint3_linear_226_197)"/>
</g>
<g filter="url(#filter3_f_226_197)">
<circle cx="315.5" cy="20.5" r="70.5" fill="#FFC73A"/>
</g>
</g>
<defs>
<filter id="filter0_f_226_197" x="242" y="75" width="97.4014" height="66.5957" filterUnits="userSpaceOnUse" color-interpolation-filters="sRGB">
<feFlood flood-opacity="0" result="BackgroundImageFix"/>
<feBlend mode="normal" in="SourceGraphic" in2="BackgroundImageFix" result="shape"/>
<feGaussianBlur stdDeviation="3.5" result="effect1_foregroundBlur_226_197"/>
</filter>
<filter id="filter1_f_226_197" x="274" y="190" width="73.7334" height="51.6699" filterUnits="userSpaceOnUse" color-interpolation-filters="sRGB">
<feFlood flood-opacity="0" result="BackgroundImageFix"/>
<feBlend mode="normal" in="SourceGraphic" in2="BackgroundImageFix" result="shape"/>
<feGaussianBlur stdDeviation="3.5" result="effect1_foregroundBlur_226_197"/>
</filter>
<filter id="filter2_f_226_197" x="15" y="96" width="95.7354" height="65.6221" filterUnits="userSpaceOnUse" color-interpolation-filters="sRGB">
<feFlood flood-opacity="0" result="BackgroundImageFix"/>
<feBlend mode="normal" in="SourceGraphic" in2="BackgroundImageFix" result="shape"/>
<feGaussianBlur stdDeviation="3.5" result="effect1_foregroundBlur_226_197"/>
</filter>
<filter id="filter3_f_226_197" x="-5" y="-300" width="641" height="641" filterUnits="userSpaceOnUse" color-interpolation-filters="sRGB">
<feFlood flood-opacity="0" result="BackgroundImageFix"/>
<feBlend mode="normal" in="SourceGraphic" in2="BackgroundImageFix" result="shape"/>
<feGaussianBlur stdDeviation="125" result="effect1_foregroundBlur_226_197"/>
</filter>
<radialGradient id="paint0_radial_226_197" cx="0" cy="0" r="1" gradientUnits="userSpaceOnUse" gradientTransform="translate(201 -334.633) rotate(90) scale(660.633 466.739)">
<stop stop-color="#30AEE0" stop-opacity="0.1"/>
<stop offset="1" stop-color="#F5F5F5"/>
</radialGradient>
<linearGradient id="paint1_linear_226_197" x1="290.701" y1="12.464" x2="290.701" y2="134.596" gradientUnits="userSpaceOnUse">
<stop stop-color="#309AE0" stop-opacity="0.1"/>
<stop offset="1" stop-color="#F5F5F5"/>
</linearGradient>
<linearGradient id="paint2_linear_226_197" x1="310.867" y1="147.197" x2="310.867" y2="234.67" gradientUnits="userSpaceOnUse">
<stop stop-color="#309AE0" stop-opacity="0.1"/>
<stop offset="1" stop-color="#F5F5F5"/>
</linearGradient>
<linearGradient id="paint3_linear_226_197" x1="62.8677" y1="34.7512" x2="62.8677" y2="154.622" gradientUnits="userSpaceOnUse">
<stop stop-color="#309AE0" stop-opacity="0.1"/>
<stop offset="1" stop-color="#F5F5F5"/>
</linearGradient>
<clipPath id="clip0_226_197">
<rect width="402" height="326" fill="white"/>
</clipPath>
</defs>
</svg>
